<svg version="1.1" xmlns="http://www.w3.org/2000/svg" viewBox="0 0 678.967041015625 463.1512451171875" width="1357.93408203125" height="926.302490234375">
  <!-- svg-source:excalidraw -->
  
  <defs>
    <style class="style-fonts">
      @font-face {
        font-family: "Virgil";
        src: url("https://excalidraw.com/Virgil.woff2");
      }
      @font-face {
        font-family: "Cascadia";
        src: url("https://excalidraw.com/Cascadia.woff2");
      }
      @font-face {
        font-family: "Assistant";
        src: url("https://excalidraw.com/Assistant-Regular.woff2");
      }
    </style>
    
  </defs>
  <rect x="0" y="0" width="678.967041015625" height="463.1512451171875" fill="#ffffff"></rect><g stroke-linecap="round" transform="translate(10 10) rotate(0 329.4835205078125 221.57562255859375)"><path d="M32 0 C234.23 2.65, 437.45 2.87, 626.97 0 M32 0 C252.39 -0.71, 472.6 -0.59, 626.97 0 M626.97 0 C650.17 1.68, 658.24 11, 658.97 32 M626.97 0 C646.15 1.53, 656.91 10.33, 658.97 32 M658.97 32 C661.37 119.2, 660.78 208.83, 658.97 411.15 M658.97 32 C660.46 140.08, 659.77 248.68, 658.97 411.15 M658.97 411.15 C659.91 432.16, 646.82 443.66, 626.97 443.15 M658.97 411.15 C659.71 434.23, 648.54 441.57, 626.97 443.15 M626.97 443.15 C405.29 442.9, 182.49 443.6, 32 443.15 M626.97 443.15 C498.63 441.75, 370.91 441.76, 32 443.15 M32 443.15 C12.19 442.68, -0.85 431.46, 0 411.15 M32 443.15 C11.56 440.94, 0.5 434.36, 0 411.15 M0 411.15 C-2.17 305.69, -2.23 203.28, 0 32 M0 411.15 C-0.28 296.54, 0.29 182.5, 0 32 M0 32 C-1.26 10.22, 11.06 -0.06, 32 0 M0 32 C2.17 11.91, 8.8 0.74, 32 0" stroke="#1e1e1e" stroke-width="2" fill="none"></path></g><g transform="translate(44.909912109375 32.9820556640625) rotate(0 68.28993225097656 12.5)"><text x="0" y="0" font-family="Virgil, Segoe UI Emoji" font-size="20px" fill="#1e1e1e" text-anchor="start" style="white-space: pre;" direction="ltr" dominant-baseline="text-before-edge">Business code</text></g><g stroke-linecap="round" transform="translate(118.5718994140625 149.08929443359375) rotate(0 100.25982666015625 110.76815795898438)"><path d="M65.17 7.71 C75.55 1.64, 89.97 -0.04, 101.83 0.03 C113.7 0.1, 125.34 3.09, 136.37 8.12 C147.41 13.15, 159.03 21.23, 168.04 30.19 C177.05 39.16, 185.1 50.15, 190.45 61.91 C195.8 73.67, 199.04 87.3, 200.13 100.76 C201.21 114.22, 200.26 129.67, 196.95 142.65 C193.65 155.63, 187.62 168.14, 180.29 178.64 C172.96 189.14, 163.2 198.9, 152.97 205.65 C142.75 212.4, 130.97 216.82, 118.95 219.15 C106.92 221.49, 92.78 222.02, 80.82 219.65 C68.86 217.29, 57.33 212.21, 47.2 204.96 C37.06 197.72, 27.23 187.1, 20.03 176.18 C12.83 165.26, 7.33 152.24, 3.99 139.44 C0.64 126.64, -1.17 112.53, -0.05 99.38 C1.08 86.22, 5.23 72.32, 10.74 60.5 C16.25 48.67, 23.23 37.57, 33.03 28.41 C42.82 19.26, 62.72 9.16, 69.52 5.57 C76.31 1.99, 73.41 5.13, 73.79 6.89 M102.17 -0.56 C113.77 -1.92, 128.25 2.3, 139.65 7.45 C151.05 12.61, 161.84 20.94, 170.57 30.38 C179.29 39.81, 186.88 52.05, 192.01 64.07 C197.14 76.08, 200.58 89.11, 201.32 102.46 C202.07 115.81, 200.16 131.05, 196.47 144.18 C192.79 157.32, 186.62 170.98, 179.21 181.26 C171.81 191.54, 162.77 199.41, 152.03 205.86 C141.29 212.3, 126.91 217.96, 114.77 219.94 C102.64 221.92, 90.95 220.39, 79.21 217.74 C67.47 215.09, 54.25 210.97, 44.35 204.03 C34.44 197.09, 26.49 187.03, 19.76 176.09 C13.04 165.16, 6.95 151.73, 4.01 138.41 C1.07 125.09, 0.57 109.64, 2.12 96.18 C3.67 82.71, 8 69.11, 13.31 57.62 C18.61 46.12, 25.04 35.98, 33.95 27.23 C42.86 18.48, 55.22 9.42, 66.78 5.11 C78.34 0.79, 97.21 1.82, 103.3 1.33 C109.39 0.84, 103.39 0.37, 103.32 2.18" stroke="none" stroke-width="0" fill="#ffc9c9"></path><path d="M102.01 -0.43 C113.4 -1.93, 126.14 3.66, 137.13 8.73 C148.11 13.81, 159.1 21.14, 167.92 30.03 C176.74 38.91, 184.68 50.18, 190.05 62.05 C195.42 73.91, 199.13 87.83, 200.14 101.22 C201.15 114.6, 199.56 129.66, 196.11 142.37 C192.66 155.09, 186.61 167.16, 179.42 177.52 C172.23 187.87, 163.07 197.47, 152.95 204.51 C142.84 211.55, 130.65 217.39, 118.73 219.76 C106.81 222.14, 93.26 221.33, 81.43 218.74 C69.59 216.14, 58.01 211.28, 47.71 204.18 C37.4 197.08, 26.91 186.89, 19.58 176.14 C12.26 165.39, 6.84 152.31, 3.78 139.68 C0.72 127.06, 0.07 113.73, 1.24 100.41 C2.42 87.08, 5.49 71.77, 10.83 59.74 C16.17 47.71, 24.19 37.05, 33.28 28.24 C42.37 19.42, 53.31 11.46, 65.38 6.83 C77.46 2.21, 98.13 0.98, 105.71 0.49 C113.28 0, 110.88 2.05, 110.84 3.89 M134.69 7.02 C146.12 9.59, 159.05 18.99, 168.14 27.73 C177.23 36.47, 184 47.53, 189.24 59.48 C194.49 71.43, 198.58 85.95, 199.61 99.43 C200.64 112.9, 198.74 127.35, 195.42 140.33 C192.1 153.3, 186.74 166.43, 179.69 177.29 C172.63 188.15, 163.08 198.22, 153.11 205.48 C143.14 212.73, 131.37 218.31, 119.85 220.8 C108.33 223.29, 95.81 222.88, 84 220.41 C72.19 217.93, 59.67 213.09, 48.98 205.96 C38.29 198.83, 27.57 188.15, 19.85 177.64 C12.13 167.13, 5.81 155.68, 2.68 142.89 C-0.45 130.1, -0.12 114.22, 1.07 100.9 C2.26 87.59, 4.52 74.67, 9.83 62.99 C15.14 51.3, 24.12 40.02, 32.91 30.79 C41.71 21.56, 51.27 12.61, 62.6 7.62 C73.93 2.62, 88.64 1.02, 100.89 0.82 C113.14 0.61, 130.36 4.73, 136.1 6.39 C141.83 8.04, 135.74 9.1, 135.31 10.73" stroke="#1e1e1e" stroke-width="2" fill="none"></path></g><g transform="translate(181.8173657920196 247.53253676023763) rotate(0 37.119956970214844 12.500000000000028)"><text x="37.119956970214844" y="0" font-family="Virgil, Segoe UI Emoji" font-size="20px" fill="#1e1e1e" text-anchor="middle" style="white-space: pre;" direction="ltr" dominant-baseline="text-before-edge">isLeft()</text></g><g transform="translate(173.909912109375 167.86358642578125) rotate(0 38.43995666503906 12.5)"><text x="0" y="0" font-family="Virgil, Segoe UI Emoji" font-size="20px" fill="#1e1e1e" text-anchor="start" style="white-space: pre;" direction="ltr" dominant-baseline="text-before-edge">if scope</text></g></svg>