<svg version="1.1" xmlns="http://www.w3.org/2000/svg" viewBox="0 0 678.967041015625 463.1512451171875" width="1357.93408203125" height="926.302490234375">
  <!-- svg-source:excalidraw -->
  
  <defs>
    <style class="style-fonts">
      @font-face {
        font-family: "Virgil";
        src: url("https://excalidraw.com/Virgil.woff2");
      }
      @font-face {
        font-family: "Cascadia";
        src: url("https://excalidraw.com/Cascadia.woff2");
      }
      @font-face {
        font-family: "Assistant";
        src: url("https://excalidraw.com/Assistant-Regular.woff2");
      }
    </style>
    
  </defs>
  <rect x="0" y="0" width="678.967041015625" height="463.1512451171875" fill="#ffffff"></rect><g stroke-linecap="round" transform="translate(10 10) rotate(0 329.4835205078125 221.57562255859375)"><path d="M32 0 C221.07 2.14, 412 3.56, 626.97 0 C649.89 -1.94, 660.03 11.29, 658.97 32 C655.64 129.54, 656.51 229.49, 658.97 411.15 C659.43 429.5, 646.19 440.25, 626.97 443.15 C416.65 443.09, 206.18 443.7, 32 443.15 C8.16 446.12, -1.21 434.28, 0 411.15 C-3.51 261.98, 0.54 118.78, 0 32 C0 7.7, 10.34 2.92, 32 0" stroke="none" stroke-width="0" fill="#b2f2bb"></path><path d="M32 0 C173.29 0.6, 314.02 0.95, 626.97 0 M32 0 C177.05 0.54, 322.28 0.27, 626.97 0 M626.97 0 C650.18 0.62, 659.01 12.6, 658.97 32 M626.97 0 C647.55 1.01, 660.77 8.97, 658.97 32 M658.97 32 C656.79 143.81, 658.13 253.86, 658.97 411.15 M658.97 32 C657.31 159.06, 657.2 287.37, 658.97 411.15 M658.97 411.15 C657.09 432.41, 647.33 444.98, 626.97 443.15 M658.97 411.15 C656.85 433.91, 646.48 443.22, 626.97 443.15 M626.97 443.15 C506.08 442.29, 384.43 441.17, 32 443.15 M626.97 443.15 C457.13 443.19, 287.65 443.37, 32 443.15 M32 443.15 C8.73 445.04, -0.43 431.34, 0 411.15 M32 443.15 C11.56 441.76, 1.94 433.04, 0 411.15 M0 411.15 C-0.67 265.83, -1.89 119.26, 0 32 M0 411.15 C1.09 285.57, 0.78 160.56, 0 32 M0 32 C-1.17 9.5, 9.59 -0.82, 32 0 M0 32 C0.64 12.5, 11.67 2, 32 0" stroke="#1e1e1e" stroke-width="2" fill="none"></path></g><g transform="translate(44.909912109375 32.9820556640625) rotate(0 68.28993225097656 12.5)"><text x="0" y="0" font-family="Virgil, Segoe UI Emoji" font-size="20px" fill="#1e1e1e" text-anchor="start" style="white-space: pre;" direction="ltr" dominant-baseline="text-before-edge">Business code</text></g><g stroke-linecap="round" transform="translate(118.32489013671875 149.21282958984375) rotate(0 100.25982666015625 110.76815795898438)"><path d="M73.18 3.47 C83.65 -1.68, 97.57 -1.39, 109.63 0.01 C121.69 1.41, 134.5 5.71, 145.52 11.86 C156.53 18.02, 167.75 27.08, 175.7 36.93 C183.65 46.79, 189.21 58.45, 193.21 71 C197.21 83.54, 199.59 98.75, 199.71 112.19 C199.83 125.62, 198.26 139.29, 193.92 151.6 C189.59 163.91, 182.03 176.18, 173.69 186.03 C165.35 195.89, 154.83 204.73, 143.89 210.72 C132.94 216.71, 120.04 220.83, 108.02 221.97 C95.99 223.11, 83.04 221.39, 71.72 217.56 C60.39 213.73, 49.53 207.36, 40.08 199 C30.63 190.64, 21.59 178.71, 15.01 167.41 C8.43 156.11, 2.65 144.19, 0.59 131.21 C-1.46 118.23, 0.34 102.81, 2.68 89.55 C5.01 76.28, 8.18 62.89, 14.62 51.61 C21.05 40.34, 29.27 30.43, 41.29 21.91 C53.32 13.4, 76.99 3.95, 86.78 0.52 C96.57 -2.91, 99.73 -0.44, 100.02 1.34 M110.76 1.51 C122.46 0.86, 136.73 5.48, 147.83 11.59 C158.93 17.71, 169.7 28.02, 177.36 38.2 C185.02 48.39, 189.77 60.22, 193.78 72.71 C197.8 85.19, 201.42 99.77, 201.45 113.11 C201.48 126.44, 198.82 140.42, 193.95 152.7 C189.07 164.98, 180.97 177.17, 172.22 186.79 C163.48 196.41, 152.22 204.56, 141.46 210.44 C130.7 216.32, 119.39 220.82, 107.68 222.06 C95.97 223.3, 82.81 221.88, 71.21 217.88 C59.6 213.88, 47.72 206.6, 38.04 198.09 C28.36 189.58, 19.5 178.37, 13.15 166.79 C6.8 155.22, 1.66 141.73, -0.09 128.65 C-1.84 115.56, -0.27 101.45, 2.65 88.29 C5.57 75.12, 11.02 60.83, 17.41 49.65 C23.8 38.47, 31.53 28.93, 41 21.22 C50.46 13.5, 62.15 6.93, 74.2 3.34 C86.24 -0.24, 106.95 -0.42, 113.27 -0.3 C119.59 -0.17, 112.69 2.15, 112.13 4.11" stroke="none" stroke-width="0" fill="#ffffff"></path><path d="M79.18 1.7 C89.98 -2.39, 103.35 0.09, 115.33 2.32 C127.31 4.56, 140.36 8.59, 151.07 15.1 C161.78 21.61, 172.05 30.81, 179.6 41.37 C187.15 51.92, 193.04 65.65, 196.37 78.42 C199.7 91.19, 200.56 104.9, 199.57 117.97 C198.57 131.04, 195.47 144.56, 190.43 156.83 C185.39 169.1, 177.8 182.17, 169.34 191.61 C160.88 201.05, 150.66 208.62, 139.65 213.48 C128.64 218.33, 115.53 220.44, 103.29 220.73 C91.05 221.02, 77.81 219.6, 66.21 215.23 C54.62 210.87, 42.79 203.45, 33.72 194.54 C24.66 185.64, 17.34 173.67, 11.83 161.82 C6.33 149.97, 1.97 136.67, 0.67 123.43 C-0.63 110.19, 0.94 95.35, 4.05 82.38 C7.15 69.41, 12.42 56.46, 19.29 45.6 C26.16 34.74, 34.73 24.64, 45.26 17.21 C55.8 9.78, 75.43 3.24, 82.48 1.02 C89.53 -1.19, 87.22 2.12, 87.57 3.94 M91.99 -0.59 C103.49 -3.31, 117.68 0.31, 129.12 4.57 C140.56 8.84, 151.15 16.87, 160.65 24.99 C170.14 33.11, 179.6 42.21, 186.11 53.29 C192.62 64.36, 197.43 78.1, 199.71 91.45 C201.98 104.81, 202.05 120.04, 199.74 133.43 C197.42 146.81, 192.63 160.44, 185.83 171.77 C179.04 183.1, 168.74 193.82, 158.96 201.43 C149.17 209.04, 138.62 214.1, 127.13 217.41 C115.63 220.73, 102.32 222.61, 89.99 221.32 C77.66 220.03, 64.06 216.07, 53.16 209.68 C42.27 203.3, 32.65 193.19, 24.62 183.01 C16.59 172.82, 9.26 161.08, 5.01 148.56 C0.76 136.04, -1.13 121.29, -0.86 107.91 C-0.6 94.54, 1.85 80.3, 6.62 68.3 C11.4 56.3, 19.27 45.26, 27.8 35.89 C36.34 26.51, 46.95 17.74, 57.83 12.05 C68.71 6.36, 87.35 3.45, 93.08 1.74 C98.8 0.03, 92.11 0.1, 92.18 1.79" stroke="#1e1e1e" stroke-width="2" fill="none"></path></g><g transform="translate(176.0103589560821 247.65607191648758) rotate(0 42.679954528808594 12.500000000000057)"><text x="42.679954528808594" y="0" font-family="Virgil, Segoe UI Emoji" font-size="20px" fill="#1e1e1e" text-anchor="middle" style="white-space: pre;" direction="ltr" dominant-baseline="text-before-edge">!isRight()</text></g><g transform="translate(173.909912109375 167.86358642578125) rotate(0 38.43995666503906 12.5)"><text x="0" y="0" font-family="Virgil, Segoe UI Emoji" font-size="20px" fill="#1e1e1e" text-anchor="start" style="white-space: pre;" direction="ltr" dominant-baseline="text-before-edge">if scope</text></g></svg>